<svg xmlns="http://www.w3.org/2000/svg" width="90" height="92" viewBox="0 0 90 92">
  <path fill="#FFF" fill-rule="evenodd" d="M15.0597742,80.7035412 C17.057998,80.7035412 18.2540333,81.4053861 19.3552306,82.4349503 L18.5058302,83.3400797 C17.5773291,82.4661617 16.5386668,81.8423451 15.0440368,81.8423451 C12.6051685,81.8423451 10.7796409,83.8082501 10.7796409,86.3203539 L10.7796409,86.3515653 C10.7796409,88.8796854 12.6209058,90.861196 15.0440368,90.861196 C16.5544041,90.861196 17.5458545,90.2837859 18.600254,89.2850224 L19.4181798,90.0805014 C18.2697706,91.2353217 17.010786,92 15.0125622,92 C11.8340404,92 9.48959589,89.5191076 9.48959589,86.3831873 L9.48959589,86.3515653 C9.48959589,83.2620513 11.8183031,80.7035412 15.0597742,80.7035412 Z M30.8438786,80.8908093 L30.8438786,82.0140076 L24.1248769,82.0140076 L24.1248769,85.7429437 L30.1356998,85.7429437 L30.1356998,86.8665527 L24.1248769,86.8665527 L24.1248769,90.6895336 L30.9221509,90.6895336 L30.9221509,91.8127318 L22.8816297,91.8127318 L22.8816297,80.8908093 L30.8438786,80.8908093 Z M35.880645,80.8908093 L42.8195548,89.643953 L42.8195548,80.8908093 L44.0313274,80.8908093 L44.0313274,91.8127318 L43.039877,91.8127318 L35.9274427,82.8567143 L35.9274427,91.8127318 L34.7160843,91.8127318 L34.7160843,80.8908093 L35.880645,80.8908093 Z M56.3064265,80.8908093 L56.3064265,82.0296133 L52.6085736,82.0296133 L52.6085736,91.8127318 L51.3495891,91.8127318 L51.3495891,82.0296133 L47.6521503,82.0296133 L47.6521503,80.8908093 L56.3064265,80.8908093 Z M67.8890842,80.8908093 L67.8890842,82.0140076 L61.1700826,82.0140076 L61.1700826,85.7429437 L67.1809054,85.7429437 L67.1809054,86.8665527 L61.1700826,86.8665527 L61.1700826,90.6895336 L67.9677707,90.6895336 L67.9677707,91.8127318 L59.9272495,91.8127318 L59.9272495,80.8908093 L67.8890842,80.8908093 Z M76.4982192,80.8908093 C77.8507993,80.8908093 78.9366734,81.2961463 79.6291149,81.9827963 C80.1641834,82.5133894 80.4789295,83.277657 80.4789295,84.1359694 L80.4789295,84.1671808 C80.4789295,85.9770289 79.219945,87.0382152 77.4892554,87.3503288 L80.871948,91.8127318 L79.3462576,91.8127318 L76.1519985,87.5688083 L73.0045371,87.5688083 L73.0045371,91.8127318 L71.761704,91.8127318 L71.761704,80.8908093 L76.4982192,80.8908093 Z M76.4033812,82.0296133 L73.0045371,82.0296133 L73.0045371,86.460805 L76.3876439,86.460805 C78.039647,86.460805 79.219945,85.6180983 79.219945,84.2139978 L79.219945,84.1827864 C79.219945,82.8411086 78.1812827,82.0296133 76.4033812,82.0296133 Z M72.0445614,65.5085371 C75.3961936,65.5085371 77.6462143,68.1138643 77.6462143,71.1253499 L77.6462143,71.1565612 C77.6462143,74.1680467 75.364719,76.804996 72.0130868,76.804996 C68.6614546,76.804996 66.4114339,74.1996688 66.4114339,71.1881833 L66.4114339,71.1565612 C66.4114339,68.1450757 68.6929293,65.5085371 72.0445614,65.5085371 Z M19.2144231,65.5085371 C22.5660553,65.5085371 24.816076,68.1138643 24.816076,71.1253499 L24.816076,71.1565612 C24.816076,74.1680467 22.5345807,76.804996 19.1829485,76.804996 C15.8313163,76.804996 13.5812956,74.1996688 13.5812956,71.1881833 L13.5812956,71.1565612 C13.5812956,68.1450757 15.8627909,65.5085371 19.2144231,65.5085371 Z M59.7541391,65.5397485 C61.3589302,65.5397485 62.5077536,65.9919025 63.6251024,66.8810156 L62.9011863,67.8333728 C61.8782613,67.0062717 60.8553364,66.6473411 59.7226645,66.6473411 C58.2909837,66.6473411 57.3782199,67.4272144 57.3782199,68.4103722 L57.3782199,68.4415836 C57.3782199,69.4715585 57.944763,70.0485579 60.3678941,70.5635454 C62.8224997,71.0941385 63.9555858,71.9836622 63.9555858,73.65347 L63.9555858,73.6846813 C63.9555858,75.5565416 62.3818552,76.7737846 60.1947837,76.7737846 C58.4483568,76.7737846 57.0162619,76.1967851 55.6943281,75.0263591 L56.4654562,74.1212297 C57.6142795,75.1512046 58.7154769,75.666192 60.2419956,75.666192 C61.7208883,75.666192 62.6966013,74.8854973 62.6966013,73.8091161 L62.6966013,73.7779048 C62.6966013,72.7635356 62.1462097,72.1865361 59.8328256,71.70276 C57.2991193,71.1565612 56.1349727,70.3454765 56.1349727,68.5508234 L56.1349727,68.5200227 C56.1349727,66.8033979 57.6610773,65.5397485 59.7541391,65.5397485 Z M1.25898453,65.6958053 L5.27116944,71.655943 L9.28376849,65.6958053 L10.5423389,65.6958053 L10.5423389,76.6177278 L9.29950579,76.6177278 L9.29950579,67.7705394 L5.28690674,73.621848 L5.22395752,73.621848 L1.21177261,67.786145 L1.21177261,76.6177278 L-3.4283687e-13,76.6177278 L-3.4283687e-13,65.6958053 L1.25898453,65.6958053 Z M52.7829264,65.6958053 L52.7829264,76.6177278 L51.5396792,76.6177278 L51.5396792,65.6958053 L52.7829264,65.6958053 Z M81.8497317,65.6958053 L88.7886415,74.448949 L88.7886415,65.6958053 L90,65.6958053 L90,76.6177278 L89.0089638,76.6177278 L81.8965295,67.6617103 L81.8965295,76.6177278 L80.685171,76.6177278 L80.685171,65.6958053 L81.8497317,65.6958053 Z M32.5911337,65.6958053 C33.9445421,65.6958053 35.0300021,66.1011423 35.7224436,66.7877922 C36.257512,67.3183853 36.5722582,68.082653 36.5722582,68.9409654 L36.5722582,68.9721767 C36.5722582,70.7820249 35.3136878,71.8432111 33.582584,72.1553247 L36.9656908,76.6177278 L35.4391721,76.6177278 L32.244913,72.3738042 L29.0982799,72.3738042 L29.0982799,76.6177278 L27.8550327,76.6177278 L27.8550327,65.6958053 L32.5911337,65.6958053 Z M44.3783764,65.6958053 C45.7317848,65.6958053 46.8172448,66.1011423 47.5096863,66.7877922 C48.0447547,67.3183853 48.3595008,68.082653 48.3595008,68.9409654 L48.3595008,68.9721767 C48.3595008,70.7820249 47.1005163,71.8432111 45.3694126,72.1553247 L48.7529335,76.6177278 L47.2264147,76.6177278 L44.0321556,72.3738042 L40.8851085,72.3738042 L40.8851085,76.6177278 L39.6418612,76.6177278 L39.6418612,65.6958053 L44.3783764,65.6958053 Z M72.0130868,66.6473411 C69.4955319,66.6473411 67.7018931,68.6444574 67.7018931,71.1253499 L67.7018931,71.1565612 C67.7018931,73.6374536 69.5270065,75.666192 72.0445614,75.666192 C74.5621163,75.666192 76.3557552,73.6690757 76.3557552,71.1881833 L76.3557552,71.1565612 C76.3557552,68.6756688 74.5306417,66.6473411 72.0130868,66.6473411 Z M19.1829485,66.6473411 C16.6653936,66.6473411 14.8717548,68.6444574 14.8717548,71.1253499 L14.8717548,71.1565612 C14.8717548,73.6374536 16.6968682,75.666192 19.2144231,75.666192 C21.731978,75.666192 23.526031,73.6690757 23.526031,71.1881833 L23.526031,71.1565612 C23.526031,68.6756688 21.7005034,66.6473411 19.1829485,66.6473411 Z M32.4967099,66.8346093 L29.0982799,66.8346093 L29.0982799,71.265801 L32.4809726,71.265801 C34.1333898,71.265801 35.3136878,70.4230943 35.3136878,69.0189938 L35.3136878,68.9877824 C35.3136878,67.6461046 34.2750255,66.8346093 32.4967099,66.8346093 Z M44.2839525,66.8346093 L40.8851085,66.8346093 L40.8851085,71.265801 L44.2682152,71.265801 C45.9206324,71.265801 47.1005163,70.4230943 47.1005163,69.0189938 L47.1005163,68.9877824 C47.1005163,67.6461046 46.0622682,66.8346093 44.2839525,66.8346093 Z M38.3381496,20.5888198 L40.9501284,25.429866 C34.579004,26.9699001 28.8282609,32.15961 28.8282609,41.5764058 L28.8282609,41.5764058 L28.8282609,59.7500413 L23.431193,59.7500413 L23.431193,41.5764058 C23.431193,30.2010972 30.2263963,23.0910674 38.3381496,20.5888198 L38.3381496,20.5888198 Z M55.0843004,13.7046616 L55.2383604,13.7502466 C58.8045169,15.0574277 62.0662807,17.0282607 64.8356326,19.6040193 C70.8572231,25.2035836 74.0398862,33.1263408 74.0398862,42.5139786 L74.0398862,59.7500413 L68.6432325,59.7500413 L68.6432325,42.5139786 C68.6432325,29.1801572 61.2997083,21.4216703 52.6533007,18.5383156 L52.505867,18.4787676 L55.0843004,13.7046616 Z M27.2267829,7.10542736e-14 L29.7990042,4.76507113 C16.5523334,10.2036506 5.55526924,23.1050303 5.55526924,44.3209521 L5.55526924,44.3209521 L5.55526924,59.7492199 L0.158201345,59.7492199 L0.158201345,44.3209521 C0.158201345,29.6175269 5.02392807,17.2249744 14.2281817,8.4882578 C17.9807011,4.92564536 22.4865405,2.01970351 27.2267829,7.10542736e-14 L27.2267829,7.10542736e-14 Z M30.9254641,6.8533575 L33.4898168,11.6139112 L33.3701304,11.663603 C22.4086822,15.8237487 13.30962,26.1251401 13.30962,43.4252682 L13.30962,43.4252682 L13.30962,59.7492199 L7.91338039,59.7492199 L7.91338039,43.4252682 C7.91338039,31.37563 11.9359188,21.2183858 19.5486338,14.051272 C22.8170239,10.9703822 26.6308359,8.56217944 30.7937677,6.89196102 L30.7937677,6.89196102 L30.9254641,6.8533575 Z M62.4849759,7.10542736e-14 C67.2260466,2.01970351 71.7302294,4.92564536 75.4835771,8.4882578 C84.7433254,17.2249744 89.6123653,29.6175269 89.6123653,44.3209521 L89.6123653,59.7492199 L84.2074287,59.7492199 L84.2074287,44.3209521 C84.2074287,23.1050303 73.1594254,10.2036506 59.9135829,4.76507113 L62.4849759,7.10542736e-14 Z M42.1059921,27.5740042 L44.8509097,32.6351726 C40.6759679,32.6364046 36.5784703,35.1201718 36.5784703,40.6507426 L36.5784703,40.6507426 L36.5784703,59.7471666 L31.1805741,59.7471666 L31.1805741,40.6507426 C31.1805741,33.0622754 36.2695221,28.6388865 42.1059921,27.5740042 L42.1059921,27.5740042 Z M58.7862947,6.8533575 L58.9188194,6.89196102 C63.0817512,8.56217944 66.8955632,10.9703822 70.1643674,14.051272 C77.7828804,21.2183858 81.8335803,31.37563 81.8335803,43.4252682 L81.8335803,59.7471666 L76.4017247,59.7471666 L76.4017247,43.4252682 C76.4017247,26.1251401 67.304319,15.8237487 56.340386,11.663603 L56.2211138,11.6139112 L58.7862947,6.8533575 Z M47.6057667,27.5740042 C53.4422367,28.6388865 58.5311847,33.0622754 58.5311847,40.6507426 L58.5311847,59.7471666 L53.1341168,59.7471666 L53.1341168,40.6507426 C53.1341168,35.1201718 49.0366191,32.6364046 44.8529804,32.6351726 L47.6057667,27.5740042 Z M34.6282867,13.7046616 L37.206306,18.4787676 L37.0592864,18.5383156 C28.4120505,21.4216703 21.0693546,29.1801572 21.0693546,42.5139786 L21.0693546,42.5139786 L21.0693546,59.7455239 L15.6714584,59.7455239 L15.6714584,42.5139786 C15.6714584,33.1263408 18.8545357,25.2035836 24.8761262,19.6040193 C27.6463063,17.0282607 30.9080702,15.0574277 34.4742267,13.7502466 L34.4742267,13.7502466 L34.6282867,13.7046616 Z M51.3744375,20.5888198 C59.4861907,23.0910674 66.2805658,30.2010972 66.2805658,41.5764058 L66.2805658,59.7447025 L60.8834979,59.7447025 L60.8834979,41.5764058 C60.8834979,32.15961 55.133583,26.9699001 48.7616304,25.429866 L51.3744375,20.5888198 Z"/>
</svg>
